<?xml version="1.0" encoding="utf-8"?>
<!-- Generator: Adobe Illustrator 25.2.3, SVG Export Plug-In . SVG Version: 6.00 Build 0)  -->
<svg version="1.1" id="레이어_1" xmlns="http://www.w3.org/2000/svg" xmlns:xlink="http://www.w3.org/1999/xlink" x="0px"
	 y="0px" viewBox="0 0 512 512" style="enable-background:new 0 0 512 512;" xml:space="preserve">
<path d="M505.6,396.2h-16v-89c0-119.1-89.6-217.6-204.9-231.8c8.9-7.9,14.5-19.4,14.5-32.2C299.2,19.4,279.8,0,256,0
	c-23.8,0-43.2,19.4-43.2,43.2c0,12.8,5.6,24.3,14.5,32.2C112,89.6,22.4,188.1,22.4,307.2v89h-16c-3.5,0-6.4,2.9-6.4,6.4v14.3
	c0,24.6,17.9,45.1,41.4,49.2v39.5c0,3.5,2.9,6.4,6.4,6.4h416.3c3.5,0,6.4-2.9,6.4-6.4v-39.5c23.5-4.1,41.4-24.5,41.4-49.2v-14.3
	C512,399.1,509.1,396.2,505.6,396.2z M225.6,43.2c0-16.8,13.6-30.4,30.4-30.4c16.8,0,30.4,13.6,30.4,30.4
	c0,16.8-13.6,30.4-30.4,30.4C239.2,73.6,225.6,60,225.6,43.2z M35.2,307.2c0-121.7,99-220.8,220.8-220.8s220.8,99.1,220.8,220.8v89
	H35.2V307.2z M54.2,499.2v-32.3h403.5v32.3H54.2z M499.2,416.9c0,20.5-16.7,37.1-37.1,37.1H49.9c-20.5,0-37.1-16.7-37.1-37.1V409
	h486.4V416.9z"/>
</svg>
