<svg width="60" height="60" viewBox="0 0 60 60" fill="none" xmlns="http://www.w3.org/2000/svg">
<path d="M50.5263 15.7895V25.2316C50.5263 25.2316 44.2421 25.2632 44.2105 25.2316V15.7895H34.7368C34.7368 15.7895 34.7684 9.50526 34.7368 9.47368H44.2105V0H50.5263V9.47368H60V15.7895H50.5263ZM41.0526 28.4211V18.9474H31.5789V9.47368H6.31579C2.84211 9.47368 0 12.3158 0 15.7895V53.6842C0 57.1579 2.84211 60 6.31579 60H44.2105C47.6842 60 50.5263 57.1579 50.5263 53.6842V28.4211H41.0526ZM6.31579 53.6842L15.7895 41.0526L22.1053 50.5263L31.5789 37.8947L44.2105 53.6842H6.31579Z" fill="#505050"/>
</svg>
